# xmcd
#
# Track frame offsets:
#  150
#  24302
#  46769
#  72942
#  93569
#  111642
#  136540
#  157910
#
# Disc length: 2348 seconds
#
# Revision: 0
# Processed by: cddbd v1.5.1PL2 Copyright (c) Steve Scherf et al.
# Submitted via: Collectorz.com_Music_Collector 6.10
#
DISCID=5e092a08
DTITLE=Artistes Variés - Splendeur Séga
DYEAR=2004
DGENRE=
TTITLE0=Pot Pourri - Wachi Wala, ambalaba, li batte so mama
TTITLE1=Pot Pourri - Mo content ou, Bord la mer, Lolo,Tequiero
TTITLE2=Pot Pourri - Raphael, Mo capitaine, met dobois vert
TTITLE3=Pot Pourri - Madame ezene,cocorico,banane,banane
TTITLE4=Pot Pourri - Toi baba, Mama dolores
TTITLE5=Pot Pourri - Dhoby de classe, bhai aboo
TTITLE6=Pot Pourri - Mama zordi mo aller, rand mo madam, bouze bouzé
TTITLE7=Rougail tomate
EXTD=
EXTT0=
EXTT1=
EXTT2=
EXTT3=
EXTT4=
EXTT5=
EXTT6=
EXTT7=
PLAYORDER=
